<svg xmlns="http://www.w3.org/2000/svg" xmlns:xlink="http://www.w3.org/1999/xlink" width="2196" zoomAndPan="magnify" viewBox="0 0 1646.88 566.249966" height="755" preserveAspectRatio="xMidYMid meet" version="1.0"><defs><g/><clipPath id="1798932c4b"><rect x="0" width="1487" y="0" height="339"/></clipPath><clipPath id="891fc9091d"><rect x="0" width="1334" y="0" height="184"/></clipPath></defs><g transform="matrix(1, 0, 0, 1, 85, 48)"><g clip-path="url(#1798932c4b)"><g fill="#f2ecf8" fill-opacity="1"><g transform="translate(1.183359, 252.331117)"><g><path d="M 80.359375 -9.921875 L 8.953125 -81.078125 L 80.359375 -152.484375 L 100.4375 -132.15625 L 49.125 -81.078125 L 100.4375 -30.015625 Z M 80.359375 -9.921875 "/></g></g></g><g fill="#f2ecf8" fill-opacity="1"><g transform="translate(124.61237, 252.331117)"><g><path d="M 129 -169.421875 L 195.5625 -12.109375 L 195.5625 0 L 155.625 0 L 142.078125 -34.375 L 57.125 -34.375 L 43.328125 0 L 4.59375 0 L 4.59375 -12.109375 L 71.40625 -169.421875 Z M 71.15625 -69.46875 L 128.03125 -69.46875 L 102.625 -133.59375 L 97.046875 -133.59375 Z M 71.15625 -69.46875 "/></g></g></g><g fill="#f2ecf8" fill-opacity="1"><g transform="translate(331.536618, 252.331117)"><g><path d="M 22.265625 48.40625 L 22.265625 18.15625 L 93.671875 18.15625 L 99.953125 11.859375 L 99.953125 -6.78125 L 97.53125 -6.78125 L 89.546875 0 L 41.625 0 L 14.765625 -26.859375 L 14.765625 -121.734375 L 53.25 -121.734375 L 53.25 -39.6875 L 61.46875 -31.46875 L 88.578125 -31.46875 L 99.953125 -40.65625 L 99.953125 -121.734375 L 138.4375 -121.734375 L 138.4375 24.203125 L 114.234375 48.40625 Z M 22.265625 48.40625 "/></g></g></g><g fill="#f2ecf8" fill-opacity="1"><g transform="translate(495.140275, 252.331117)"><g><path d="M 17.1875 0 L 17.1875 -169.421875 L 55.671875 -169.421875 L 55.671875 -114 L 58.328125 -114 L 67.28125 -121.734375 L 117.625 -121.734375 L 146.1875 -93.1875 L 146.1875 -28.5625 L 117.625 0 Z M 55.671875 -31.46875 L 97.78125 -31.46875 L 107.703125 -41.390625 L 107.703125 -80.359375 L 97.78125 -90.28125 L 68.25 -90.28125 L 55.671875 -79.875 Z M 55.671875 -31.46875 "/></g></g></g><g fill="#f2ecf8" fill-opacity="1"><g transform="translate(664.068207, 252.331117)"><g><path d="M 41.625 0 L 14.765625 -26.859375 L 14.765625 -121.734375 L 53.25 -121.734375 L 53.25 -39.6875 L 61.46875 -31.46875 L 89.3125 -31.46875 L 100.6875 -40.65625 L 100.6875 -121.734375 L 139.171875 -121.734375 L 139.171875 0 L 108.4375 0 L 108.4375 -9.6875 L 103.828125 -9.6875 L 92.453125 0 Z M 35.09375 -143.28125 L 35.09375 -171.84375 L 69.453125 -171.84375 L 69.453125 -143.28125 Z M 84.46875 -143.28125 L 84.46875 -171.84375 L 118.828125 -171.84375 L 118.828125 -143.28125 Z M 84.46875 -143.28125 "/></g></g></g><g fill="#f2ecf8" fill-opacity="1"><g transform="translate(828.397938, 252.331117)"><g><path d="M 17.1875 0 L 17.1875 -169.421875 L 55.671875 -169.421875 L 55.671875 -78.171875 L 76.484375 -78.171875 L 108.671875 -121.734375 L 145.703125 -121.734375 L 145.703125 -111.578125 L 109.390625 -64.140625 L 150.546875 -10.171875 L 150.546875 0 L 111.578125 0 L 76.484375 -46.71875 L 55.671875 -46.71875 L 55.671875 0 Z M 17.1875 0 "/></g></g></g><g fill="#f2ecf8" fill-opacity="1"><g transform="translate(989.581168, 252.331117)"><g><path d="M 42.109375 0 L 13.546875 -28.5625 L 13.546875 -93.1875 L 42.109375 -121.734375 L 116.421875 -121.734375 L 144.984375 -93.1875 L 144.984375 -48.40625 L 52.03125 -48.40625 L 52.03125 -40.65625 L 61.953125 -30.734375 L 135.78125 -30.734375 L 135.78125 0 Z M 52.03125 -73.09375 L 106.5 -73.09375 L 106.5 -82.78125 L 96.578125 -92.703125 L 61.953125 -92.703125 L 52.03125 -82.78125 Z M 52.03125 -73.09375 "/></g></g></g><g fill="#f2ecf8" fill-opacity="1"><g transform="translate(1155.60492, 252.331117)"><g/></g></g><g fill="#f2ecf8" fill-opacity="1"><g transform="translate(1247.087848, 252.331117)"><g><path d="M 2.421875 48.40625 L 2.421875 37.75 L 73.328125 -176.6875 L 102.375 -176.6875 L 102.375 -166.03125 L 31.21875 48.40625 Z M 2.421875 48.40625 "/></g></g></g><g fill="#f2ecf8" fill-opacity="1"><g transform="translate(1360.836261, 252.331117)"><g><path d="M 33.890625 -9.921875 L 13.796875 -30.015625 L 65.109375 -81.078125 L 13.796875 -132.15625 L 33.890625 -152.484375 L 105.28125 -81.078125 Z M 33.890625 -9.921875 "/></g></g></g></g></g><g transform="matrix(1, 0, 0, 1, 160, 356)"><g clip-path="url(#891fc9091d)"><g fill="#ffffff" fill-opacity="1"><g transform="translate(1.19623, 137.50671)"><g><path d="M 9.734375 0 L 9.734375 -11.046875 L 66.890625 -11.046875 L 74.671875 -18.828125 L 74.671875 -33.125 L 66.890625 -40.90625 L 22.734375 -40.90625 L 8.4375 -55.203125 L 8.4375 -76.625 L 22.734375 -90.90625 L 82.46875 -90.90625 L 82.46875 -79.875 L 28.578125 -79.875 L 20.78125 -72.078125 L 20.78125 -59.75 L 28.578125 -51.953125 L 72.734375 -51.953125 L 87.015625 -37.65625 L 87.015625 -14.28125 L 72.734375 0 Z M 9.734375 0 "/></g></g></g><g fill="#ffffff" fill-opacity="1"><g transform="translate(101.570322, 137.50671)"><g><path d="M 23.375 0 L 8.4375 -14.9375 L 8.4375 -50 L 23.375 -64.9375 L 59.09375 -64.9375 L 74.03125 -50 L 74.03125 -14.9375 L 59.09375 0 Z M 28.578125 -11.046875 L 53.890625 -11.046875 L 62.34375 -19.484375 L 62.34375 -45.453125 L 53.890625 -53.890625 L 28.578125 -53.890625 L 20.125 -45.453125 L 20.125 -19.484375 Z M 28.578125 -11.046875 "/></g></g></g><g fill="#ffffff" fill-opacity="1"><g transform="translate(190.907364, 137.50671)"><g><path d="M 14.9375 0 L 14.9375 -53.890625 L 1.953125 -53.890625 L 1.953125 -64.9375 L 14.9375 -64.9375 L 14.9375 -82.46875 L 23.375 -90.90625 L 50.65625 -90.90625 L 50.65625 -79.875 L 28.578125 -79.875 L 26.625 -77.921875 L 26.625 -64.9375 L 50 -64.9375 L 50 -53.890625 L 26.625 -53.890625 L 26.625 0 Z M 14.9375 0 "/></g></g></g><g fill="#ffffff" fill-opacity="1"><g transform="translate(247.13326, 137.50671)"><g><path d="M 23.375 0 L 14.9375 -8.4375 L 14.9375 -53.890625 L 1.953125 -53.890625 L 1.953125 -64.9375 L 14.9375 -64.9375 L 14.9375 -81.828125 L 26.625 -81.828125 L 26.625 -64.9375 L 50 -64.9375 L 50 -53.890625 L 26.625 -53.890625 L 26.625 -12.984375 L 28.578125 -11.046875 L 50.65625 -11.046875 L 50.65625 0 Z M 23.375 0 "/></g></g></g><g fill="#ffffff" fill-opacity="1"><g transform="translate(307.903838, 137.50671)"><g><path d="M 22.984375 0 L 2.59375 -61.046875 L 2.59375 -64.9375 L 13.765625 -64.9375 L 31.171875 -11.046875 L 33.125 -11.046875 L 46.109375 -48.96875 L 42.59375 -61.046875 L 42.59375 -64.9375 L 53.125 -64.9375 L 68.703125 -11.046875 L 70.78125 -11.046875 L 88.1875 -64.9375 L 98.96875 -64.9375 L 98.96875 -61.046875 L 78.578125 0 L 60.65625 0 L 51.6875 -30.515625 L 50.125 -30.515625 L 39.734375 0 Z M 22.984375 0 "/></g></g></g><g fill="#ffffff" fill-opacity="1"><g transform="translate(415.029744, 137.50671)"><g><path d="M 17.53125 0 L 6.5 -11.046875 L 6.5 -28.578125 L 18.828125 -40.90625 L 56.5 -40.90625 L 56.5 -47.40625 L 50 -53.890625 L 14.9375 -53.890625 L 14.9375 -64.9375 L 55.203125 -64.9375 L 68.1875 -51.953125 L 68.1875 0 L 59.09375 0 L 59.09375 -6.5 L 56.75 -6.5 L 48.703125 0 Z M 22.734375 -11.046875 L 45.453125 -11.046875 L 56.5 -20 L 56.5 -29.875 L 24.03125 -29.875 L 18.1875 -24.03125 L 18.1875 -15.578125 Z M 22.734375 -11.046875 "/></g></g></g><g fill="#ffffff" fill-opacity="1"><g transform="translate(499.172848, 137.50671)"><g><path d="M 9.734375 0 L 9.734375 -64.9375 L 18.828125 -64.9375 L 18.828125 -59.75 L 21.171875 -59.75 L 27.40625 -64.9375 L 53.25 -64.9375 L 53.25 -53.890625 L 30.65625 -53.890625 L 21.421875 -46.234375 L 21.421875 0 Z M 9.734375 0 "/></g></g></g><g fill="#ffffff" fill-opacity="1"><g transform="translate(558.644969, 137.50671)"><g><path d="M 23.375 0 L 8.4375 -14.9375 L 8.4375 -50 L 23.375 -64.9375 L 57.796875 -64.9375 L 72.734375 -50 L 72.734375 -25.96875 L 20.125 -25.96875 L 20.125 -19.484375 L 28.578125 -11.046875 L 68.1875 -11.046875 L 68.1875 0 Z M 20.125 -37.015625 L 61.046875 -37.015625 L 61.046875 -45.453125 L 52.59375 -53.890625 L 28.578125 -53.890625 L 20.125 -45.453125 Z M 20.125 -37.015625 "/></g></g></g><g fill="#ffffff" fill-opacity="1"><g transform="translate(645.385014, 137.50671)"><g/></g></g><g fill="#ffffff" fill-opacity="1"><g transform="translate(696.417055, 137.50671)"><g><path d="M 12.984375 0 L 12.984375 -90.90625 L 88.3125 -90.90625 L 88.3125 -79.875 L 25.328125 -79.875 L 25.328125 -51.296875 L 74.03125 -51.296875 L 74.03125 -40.265625 L 25.328125 -40.265625 L 25.328125 -11.046875 L 89.609375 -11.046875 L 89.609375 0 Z M 12.984375 0 "/></g></g></g><g fill="#ffffff" fill-opacity="1"><g transform="translate(798.089576, 137.50671)"><g><path d="M 9.734375 0 L 9.734375 -64.9375 L 18.828125 -64.9375 L 18.828125 -59.75 L 21.171875 -59.75 L 27.40625 -64.9375 L 57.796875 -64.9375 L 71.4375 -51.296875 L 71.4375 0 L 59.75 0 L 59.75 -46.75 L 52.59375 -53.890625 L 30.65625 -53.890625 L 21.421875 -46.234375 L 21.421875 0 Z M 9.734375 0 "/></g></g></g><g fill="#ffffff" fill-opacity="1"><g transform="translate(885.478905, 137.50671)"><g><path d="M 12.984375 25.96875 L 12.984375 14.9375 L 55.203125 14.9375 L 59.75 10.390625 L 59.75 -4.546875 L 57.40625 -4.546875 L 51.953125 0 L 23.375 0 L 8.4375 -14.9375 L 8.4375 -50 L 23.375 -64.9375 L 71.4375 -64.9375 L 71.4375 14.9375 L 60.390625 25.96875 Z M 28.578125 -11.046875 L 48.703125 -11.046875 L 59.75 -20.125 L 59.75 -53.890625 L 28.578125 -53.890625 L 20.125 -45.453125 L 20.125 -19.484375 Z M 28.578125 -11.046875 "/></g></g></g><g fill="#ffffff" fill-opacity="1"><g transform="translate(973.517463, 137.50671)"><g><path d="M 9.734375 0 L 9.734375 -64.9375 L 21.421875 -64.9375 L 21.421875 0 Z M 9.078125 -77.921875 L 9.078125 -90.90625 L 22.078125 -90.90625 L 22.078125 -77.921875 Z M 9.078125 -77.921875 "/></g></g></g><g fill="#ffffff" fill-opacity="1"><g transform="translate(1011.564714, 137.50671)"><g><path d="M 9.734375 0 L 9.734375 -64.9375 L 18.828125 -64.9375 L 18.828125 -59.75 L 21.171875 -59.75 L 27.40625 -64.9375 L 57.796875 -64.9375 L 71.4375 -51.296875 L 71.4375 0 L 59.75 0 L 59.75 -46.75 L 52.59375 -53.890625 L 30.65625 -53.890625 L 21.421875 -46.234375 L 21.421875 0 Z M 9.734375 0 "/></g></g></g><g fill="#ffffff" fill-opacity="1"><g transform="translate(1098.953989, 137.50671)"><g><path d="M 23.375 0 L 8.4375 -14.9375 L 8.4375 -50 L 23.375 -64.9375 L 57.796875 -64.9375 L 72.734375 -50 L 72.734375 -25.96875 L 20.125 -25.96875 L 20.125 -19.484375 L 28.578125 -11.046875 L 68.1875 -11.046875 L 68.1875 0 Z M 20.125 -37.015625 L 61.046875 -37.015625 L 61.046875 -45.453125 L 52.59375 -53.890625 L 28.578125 -53.890625 L 20.125 -45.453125 Z M 20.125 -37.015625 "/></g></g></g><g fill="#ffffff" fill-opacity="1"><g transform="translate(1185.694145, 137.50671)"><g><path d="M 23.375 0 L 8.4375 -14.9375 L 8.4375 -50 L 23.375 -64.9375 L 57.796875 -64.9375 L 72.734375 -50 L 72.734375 -25.96875 L 20.125 -25.96875 L 20.125 -19.484375 L 28.578125 -11.046875 L 68.1875 -11.046875 L 68.1875 0 Z M 20.125 -37.015625 L 61.046875 -37.015625 L 61.046875 -45.453125 L 52.59375 -53.890625 L 28.578125 -53.890625 L 20.125 -45.453125 Z M 20.125 -37.015625 "/></g></g></g><g fill="#ffffff" fill-opacity="1"><g transform="translate(1272.43419, 137.50671)"><g><path d="M 9.734375 0 L 9.734375 -64.9375 L 18.828125 -64.9375 L 18.828125 -59.75 L 21.171875 -59.75 L 27.40625 -64.9375 L 53.25 -64.9375 L 53.25 -53.890625 L 30.65625 -53.890625 L 21.421875 -46.234375 L 21.421875 0 Z M 9.734375 0 "/></g></g></g></g></g></svg>